{"title":"Republican.Debates.5pm.Online.Post.Show.08.06.2015.WS.WEB-DL.AAC","uid":12272898,"size":370797440,"categoryP":"video","categoryS":"tv_shows","magnet":"?xt=urn:btih:d4d5ce1579275a90ed7a79c367e6fac06f9e3e38&amp;dn=Republican.Debates.5pm.Online.Post.Show.08.06.2015.WS.WEB-DL.AAC&amp;tr=udp%3A%2F%2Ftracker.openbittorrent.com%3A80&amp;tr=udp%3A%2F%2Fopen.demonii.com%3A1337&amp;tr=udp%3A%2F%2Ftracker.coppersurfer.tk%3A6969&amp;tr=udp%3A%2F%2Fexodus.desync.com%3A6969","seeders":0,"leechers":1,"uploader":"Reive","files":1,"time":1440310950,"description":"NOTES: The first 20 minutes of this is missing. But this is the best copy out there and all that is left of their stream.\n\n_,-'2_,-'2_,-'2_,-'2_,-'2_,-'2_,-'2_,-'2_,-'2_,-'2\n\nThis is an online post show from FoxNews.com. With KENNEDY MONTGOMERY, HARRIS FAULKNER, JESSIE WATERS and ANDREA TANTAROS.\n\n_,-'2_,-'2_,-'2_,-'2_,-'2_,-'2_,-'2_,-'2_,-'2_,-'2\n\nGeneral\nComplete name                            : Republican.Debates.5pm.Online.Post.Show.08.06.2015.WS.WEB-DL.AAC2.0.x264.XAiO.mp4\nFormat                                   : MPEG-4\nFormat profile                           : Base Media\nCodec ID                                 : isom\nFile size                                : 354 MiB\nDuration                                 : 35mn 54s\nOverall bit rate                         : 1 377 Kbps\nWriting application                      : Lavf56.25.101\n\nVideo\nID                                       : 1\nFormat                                   : AVC\nFormat/Info                              : Advanced Video Codec\nFormat profile                           : High@L3\nFormat settings, CABAC                   : Yes\nFormat settings, ReFrames                : 4 frames\nCodec ID                                 : avc1\nCodec ID/Info                            : Advanced Video Coding\nDuration                                 : 35mn 54s\nBit rate                                 : 1 292 Kbps\nWidth                                    : 624 pixels\nHeight                                   : 352 pixels\nDisplay aspect ratio                     : 16:9\nFrame rate mode                          : Variable\nFrame rate                               : 28.710 fps\nOriginal frame rate                      : 29.970 fps\nMinimum frame rate                       : 4.281 fps\nMaximum frame rate                       : 29.970 fps\nColor space                              : YUV\nChroma subsampling                       : 4:2:0\nBit depth                                : 8 bits\nScan type                                : Progressive\nBits/(Pixel*Frame)                       : 0.205\nStream size                              : 318 MiB (90%)\nWriting library                          : x264 core 142 r2389 956c8d8\nEncoding settings                        : cabac=1 / ref=3 / deblock=1:0:0 / analyse=0x3:0x133 / me=hex / subme=7 / psy=1 / psy_rd=1.00:0.00 / mixed_ref=1 / me_range=16 / chroma_me=1 / trellis=1 / 8x8dct=1 / cqm=0 / deadzone=21,11 / fast_pskip=1 / chroma_qp_offset=-2 / threads=6 / lookahead_threads=1 / sliced_threads=0 / nr=0 / decimate=1 / interlaced=0 / bluray_compat=0 / constrained_intra=0 / bframes=3 / b_pyramid=2 / b_adapt=1 / b_bias=0 / direct=1 / weightb=1 / open_gop=0 / weightp=2 / keyint=250 / keyint_min=25 / scenecut=40 / intra_refresh=0 / rc_lookahead=40 / rc=2pass / mbtree=1 / bitrate=1292 / ratetol=1.0 / qcomp=0.60 / qpmin=10 / qpmax=51 / qpstep=4 / cplxblur=20.0 / qblur=0.5 / ip_ratio=1.40 / aq=1:1.00\n\nAudio\nID                                       : 2\nFormat                                   : AAC\nFormat/Info                              : Advanced Audio Codec\nFormat profile                           : LC\nCodec ID                                 : 40\nDuration                                 : 35mn 54s\nBit rate mode                            : Constant\nBit rate                                 : 128 Kbps\nChannel(s)                               : 2 channels\nChannel positions                        : Front: L R\nSampling rate                            : 48.0 KHz\nCompression mode                         : Lossy\nStream size                              : 32.9 MiB (9%)\nLanguage                                 : unk","torrent":{"xt":"urn:btih:d4d5ce1579275a90ed7a79c367e6fac06f9e3e38","amp;dn":"Republican.Debates.5pm.Online.Post.Show.08.06.2015.WS.WEB-DL.AAC","amp;tr":["udp%3A%2F%2Ftracker.openbittorrent.com%3A80","udp%3A%2F%2Fopen.demonii.com%3A1337","udp%3A%2F%2Ftracker.coppersurfer.tk%3A6969","udp%3A%2F%2Fexodus.desync.com%3A6969"],"infoHash":"d4d5ce1579275a90ed7a79c367e6fac06f9e3e38","infoHashBuffer":{"type":"Buffer","data":[212,213,206,21,121,39,90,144,237,122,121,195,103,230,250,192,111,158,62,56]},"announce":[],"urlList":[]}}